<svg width="1024" height="1024" viewBox="0 0 1024 1024" fill="none" xmlns="http://www.w3.org/2000/svg">
<path fill-rule="evenodd" clip-rule="evenodd" d="M371.615 837.911L354.632 814.593C354.632 814.593 377.677 775.839 384.723 743.61C391.773 711.386 389.757 696.123 389.757 678.168C389.757 629.767 401.459 606.431 421.916 565.028C430.159 548.339 435.917 533.818 433.28 515.655C428.689 531.611 426.282 541.024 422.298 550.585C411.024 577.658 385.113 606.275 385.989 636.947C379.42 623.809 367.219 578.382 371.598 553.863C375.977 529.339 383.661 513.153 394.704 490.303C405.748 467.457 408.41 436.612 403.463 421.38C400.349 484.727 364.843 506.164 363.1 555.801C357.45 537.725 342.556 519.132 341.858 488.573C340.787 441.477 377.577 416.047 360.602 366.392C361.144 376.725 362.363 389.077 358.183 405.862C350.795 435.541 336.764 446.48 334.76 481.566C326.002 457.042 311.988 425.946 311.988 407.115C311.988 388.284 324.692 371.643 318.557 329.16C318.119 351.932 304.106 387.846 305.419 406.239C262.065 292.812 258.995 291.06 258.995 291.06L318.431 472.882C318.431 472.882 279.92 437.045 291.18 457.251C304.097 467.518 331.591 492.085 353.253 565.635C329.575 545.989 335.294 547.788 310.523 532.231C276.82 515.239 248.979 501.143 230.14 469.599C237.589 492.38 252.916 512.533 296.292 535.314C325.646 551.526 370.926 576.657 375.748 663.843C358.222 639.748 338.945 623.974 313.094 610.832C287.248 597.69 271.469 592.431 251.316 567.022C263.587 589.803 279.356 604.263 314.408 621.789C338.94 634.935 383.11 661.332 374.039 721.792C334.236 700.125 264.363 668.252 227.582 585.623C210.451 535.739 189.721 478.115 220.375 359.333C227.274 309.523 238.001 262.777 212.714 232.123C244.899 248.218 397.397 318.715 432.652 429.835C436.485 418.34 437.278 415.249 440.326 407.245C426.23 378.285 406.038 344.374 384.697 327.612C390.412 307.038 432.465 191.465 609.075 94.1635C595.746 114.156 587.083 173.467 634.4 272.767C656.392 327.417 708.618 475.865 632.64 535.843C662.631 529.179 777.264 501.182 821.247 436.538C812.584 517.181 809.141 634.675 696.508 723.318C639.192 762.64 582.539 797.297 446.579 751.31C461.906 735.983 485.224 709.825 548.329 725.603C586.016 734.37 607.488 740.943 634.218 729.987C621.458 730.802 607.514 730.438 590.422 726.813C545.914 717.382 542.952 711.572 494.425 714.208C513.269 695.365 553.146 662.056 631.586 677.397C639.911 671.699 639.911 671.699 639.911 671.699C639.911 671.699 607.483 664.246 586.008 665.126C625.009 644.531 650.426 629.628 675.843 629.19C701.26 628.752 740.265 626.558 759.981 604.211C738.072 613.416 724.921 619.985 671.021 621.303C695.58 597.759 727.384 589.846 784.916 507.889C759.491 537.261 718.725 587.665 661.743 611.777C674.017 589.864 674.893 587.561 678.869 576.288C682.845 565.019 683.509 553.746 698.758 538.501C681.852 550.433 679.862 555.779 668.593 588.55C657.654 612.749 649.702 619.712 632.467 629.984C582.747 651.529 584.737 651.858 584.737 651.858C605.359 625.487 605.181 613.022 618.609 586.022C623.483 576.223 629.622 566.233 637.236 558.151C594.315 582.592 611.169 630.053 559.125 660.187C530.3 677.193 507.819 688.436 507.819 688.436C507.819 688.436 524.226 666.366 530.326 648.069C536.427 629.771 541.378 608.421 554.343 592.032C535.664 612.996 528.423 625.96 518.129 652.261C507.836 679.326 496.528 695.581 462.218 718.457C437.82 740.189 409.988 762.298 393.598 790.888C381.402 814.523 374.85 828.628 371.607 837.898L371.615 837.911ZM451.994 430.589C451.994 430.589 451.998 402.324 478.244 415.444C615.544 496.716 615.544 496.716 615.544 496.716C615.544 496.716 638.259 505.297 615.544 528.012C476.726 610.29 476.726 610.29 476.726 610.29C476.726 610.29 452.497 616.855 450.477 596.159C451.487 445.735 451.99 430.589 451.99 430.589H451.994ZM612.977 474.065L604.908 468.832C604.908 468.832 635.662 442.218 645.041 414.083C644.169 428.044 638.715 450.075 612.977 474.065ZM544.639 434.023L537.615 427.502C537.615 427.502 617.998 369.197 627.615 322.097C625.954 351.29 619.984 378.489 544.635 434.028L544.639 434.023ZM575.745 267.573C575.745 267.573 581.052 276.86 590.339 283.824C599.627 290.792 608.251 296.762 598.963 317.986C599.627 306.375 597.97 304.389 592.329 296.762C585.362 289.131 580.059 285.818 580.388 294.772C581.052 332.251 581.815 344.149 562.477 346.846C553.189 346.846 540.255 329.268 573.421 323.961C573.091 282.831 575.745 267.573 575.745 267.573ZM465.964 238.644C465.964 238.644 457.57 270.682 474.736 304.623C490.375 336.279 502.091 364.536 502.091 387.803C500.946 407.635 500.946 407.635 500.946 407.635L513.915 415.262C513.915 415.262 513.919 386.662 543.282 351.954C542.519 338.985 542.519 338.985 542.519 338.985C542.519 338.985 523.068 355.765 516.967 373.689C518.875 344.704 523.072 308.092 533.752 286.733C547.861 268.809 579.274 242.516 582.708 219.249C572.029 233.74 564.784 244.801 550.289 255.48C539.991 263.111 533.504 273.791 531.983 277.983C536.943 253.191 554.438 193.46 570.078 156.635C548.892 183.366 536.787 218.677 522.665 273.153C520.146 257.011 517.214 246.457 514.166 236.537C511.114 226.239 507.303 214.411 513.022 189.241C501.961 206.025 502.72 223.568 508.443 242.642C514.166 261.711 518.745 281.929 516.074 298.709C506.921 348.671 506.54 360.495 506.54 360.495C506.54 360.495 495.86 323.497 481.747 299.854C467.634 276.206 467.634 246.834 465.977 238.64L465.964 238.644ZM420.281 296.992C420.281 296.992 419.219 349.608 458.116 393.843C449.345 398.04 449.345 398.04 449.345 398.04C449.345 398.04 412.52 358.874 420.281 296.992ZM271.829 443.848C271.829 443.848 243.317 424.944 236.349 396.097C246.959 409.361 257.573 423.955 269.51 432.575C267.52 410.358 266.856 408.702 274.812 415.995C280.12 423.951 287.083 424.614 289.737 426.605C292.39 428.595 302.666 438.862 298.356 445.839C293.713 439.209 275.142 422.624 276.803 434.895C282.439 473.358 285.422 478.002 276.803 486.292C268.512 493.256 254.581 489.275 257.902 478.336C261.219 467.392 269.223 468.801 275.476 468.056C273.486 451.809 271.829 443.848 271.829 443.848ZM662.324 680.388L678.9 639.609C678.9 639.609 681.887 641.929 683.873 647.566C685.863 653.202 696.473 664.142 687.519 676.742C697.795 677.739 713.379 671.105 722.996 665.469C713.049 679.062 692.159 683.042 677.907 683.371C684.536 672.432 690.173 666.466 677.907 656.849C665.307 688.345 665.641 688.015 665.641 688.015C665.641 688.015 657.35 701.608 642.101 693.652C630.828 686.359 645.058 669.54 662.324 680.393V680.388ZM398.65 757.728C398.65 757.728 403.987 719.602 407.421 705.875C418.096 691.77 437.161 655.552 444.02 622.001C455.077 631.15 472.23 633.821 489.768 621.238C465.748 650.978 449.354 676.516 433.345 721.891C404.75 750.868 398.65 757.732 398.65 757.732V757.728Z" fill="white" style="fill:white;fill-opacity:1;"/>
<path fill-rule="evenodd" clip-rule="evenodd" d="M736.726 443.401L736.501 393.981C736.483 390.208 737.242 386.818 742.319 384.641C751.919 380.526 767.979 375.41 778.277 372.44C787.4 369.812 788.553 371.456 788.657 378.176C788.406 435.371 792.169 443.9 771.847 446.662C759.303 446.913 753.536 423.582 783.138 424.336C783.64 390.72 784.642 385.2 780.128 387.711C751.03 397.744 742.749 397.493 742.749 404.014C742.246 447.165 746.512 458.702 729.954 465.228C712.241 472.044 697.59 442.651 736.726 443.401Z" fill="white" style="fill:white;fill-opacity:1;"/>
<path fill-rule="evenodd" clip-rule="evenodd" d="M363.195 189.748L363.859 252.814C363.859 252.814 334.314 252.15 338.962 274.723C340.289 284.349 369.5 283.685 370.831 260.783C369.17 212.984 367.18 205.353 375.808 210.994C384.437 216.639 393.516 224.223 389.497 242.043C397.275 232.504 401.238 217.528 382.217 203.64C375.691 198.116 371.425 195.103 370.67 191.339C369.916 187.576 365.398 180.799 363.191 189.748H363.195Z" fill="white" style="fill:white;fill-opacity:1;"/>
</svg>
